<?xml version="1.0" encoding="UTF-8"?><svg id="uuid-b5f78e27-a1c2-4bf8-a2f5-5ef6bf8f6814" xmlns="http://www.w3.org/2000/svg" viewBox="0 0 512 512"><defs><style>.uuid-72605e82-b259-4abb-90df-a8f0166ba407{fill:#1db53c;}.uuid-72605e82-b259-4abb-90df-a8f0166ba407,.uuid-72986073-9e97-4f2d-9ecb-2bfbece4277f,.uuid-d3335edb-c272-4578-8bb5-ad764dcdd9b2{stroke-width:0px;}.uuid-d3335edb-c272-4578-8bb5-ad764dcdd9b2{fill:#073e21;}</style></defs><g id="uuid-090004c9-a6d3-409c-b182-9cb368dea175"><rect class="uuid-72605e82-b259-4abb-90df-a8f0166ba407" width="512" height="512" rx="41.35" ry="41.35"/><polygon class="uuid-d3335edb-c272-4578-8bb5-ad764dcdd9b2" points="307 256 307 205 205 205 205 256 154 256 154 283 359 283 359 256 307 256"/><polygon class="uuid-72986073-9e97-4f2d-9ecb-2bfbece4277f" points="308 281 307 281 307 230 205 230 205 281 154 281 154 358 154 435 205 435 205 358 308 358 308 435 359 435 359 358 359 281 308 281"/><rect class="uuid-d3335edb-c272-4578-8bb5-ad764dcdd9b2" x="102" y="102" width="103" height="103"/><rect class="uuid-72986073-9e97-4f2d-9ecb-2bfbece4277f" x="128" y="128" width="77" height="77"/><rect class="uuid-d3335edb-c272-4578-8bb5-ad764dcdd9b2" x="307" y="102" width="103" height="103" transform="translate(717 307) rotate(-180)"/><rect class="uuid-72986073-9e97-4f2d-9ecb-2bfbece4277f" x="307" y="128" width="77" height="77" transform="translate(691 333) rotate(-180)"/></g></svg>